<svg xmlns="http://www.w3.org/2000/svg" width="23" height="16" viewBox="0 0 23 16" fill="none">
    <path d="M20.0616 7.33333V11.3333C20.0616 14 19.1491 14.6667 15.499 14.6667H6.37394C2.7239 14.6667 1.8114 14 1.8114 11.3333L1.8114 4.66667C1.8114 2 2.7239 1.33333 6.37394 1.33333H7.7427C9.11147 1.33333 9.4126 1.62667 9.93273 2.13333L11.3015 3.46667C11.6482 3.8 11.849 4 12.7615 4L15.499 4C19.1491 4 20.0616 4.66667 20.0616 7.33333Z" stroke="#000000" stroke-miterlimit="10"/>
    <path d="M7.74259 1.33333L15.9552 1.33333C17.7802 1.33333 18.6927 2 18.6927 3.33333V4.25333" stroke="#000000" stroke-miterlimit="10" stroke-linecap="round" stroke-linejoin="round"/>
</svg>
