<svg xmlns="http://www.w3.org/2000/svg" width="28" height="25" viewBox="0 0 28 25" fill="none">
    <path d="M13.6738 3.41C9.9084 3.41 6.84829 6.1 6.84829 9.41V12.3C6.84829 12.91 6.55251 13.84 6.19986 14.36L4.89163 16.27C4.08394 17.45 4.64136 18.76 6.12023 19.2C11.0232 20.64 16.313 20.64 21.2161 19.2C22.5925 18.8 23.1955 17.37 22.4447 16.27L21.1364 14.36C20.7951 13.84 20.4994 12.91 20.4994 12.3V9.41C20.4994 6.11 17.4279 3.41 13.6738 3.41Z" stroke="#000000" stroke-width="1.5" stroke-miterlimit="10" stroke-linecap="round"/>
    <path d="M15.7784 3.7C15.4257 3.61 15.0617 3.54 14.6863 3.5C13.5942 3.38 12.5476 3.45 11.5693 3.7C11.8992 2.96 12.7182 2.44 13.6738 2.44C14.6294 2.44 15.4485 2.96 15.7784 3.7Z" stroke="#000000" stroke-width="1.5" stroke-miterlimit="10" stroke-linecap="round" stroke-linejoin="round"/>
    <path d="M17.0866 19.56C17.0866 21.21 15.5508 22.56 13.6738 22.56C12.741 22.56 11.8764 22.22 11.2621 21.68C10.6478 21.14 10.261 20.38 10.261 19.56" stroke="#000000" stroke-width="1.5" stroke-miterlimit="10"/>
</svg>
