<svg xmlns="http://www.w3.org/2000/svg" width="24" height="25" viewBox="0 0 24 25" fill="none">
    <path d="M12 22.5C10.6167 22.5 9.31667 22.2375 8.1 21.7125C6.88333 21.1875 5.825 20.475 4.925 19.575C4.025 18.675 3.3125 17.6167 2.7875 16.4C2.2625 15.1833 2 13.8833 2 12.5C2 9.91667 2.85833 7.675 4.575 5.775C6.29167 3.875 8.43333 2.8 11 2.55V5.55C9.26667 5.78334 7.83333 6.55834 6.7 7.875C5.56667 9.19167 5 10.7333 5 12.5C5 14.45 5.67917 16.1042 7.0375 17.4625C8.39583 18.8208 10.05 19.5 12 19.5C13.0667 19.5 14.0792 19.275 15.0375 18.825C15.9958 18.375 16.8167 17.7333 17.5 16.9L20.1 18.4C19.15 19.7 17.9667 20.7083 16.55 21.425C15.1333 22.1417 13.6167 22.5 12 22.5ZM21.15 16.55L18.55 15.05C18.7 14.6333 18.8125 14.2125 18.8875 13.7875C18.9625 13.3625 19 12.9333 19 12.5C19 10.7333 18.4333 9.19167 17.3 7.875C16.1667 6.55834 14.7333 5.78334 13 5.55V2.55C15.5667 2.8 17.7083 3.875 19.425 5.775C21.1417 7.675 22 9.91667 22 12.5C22 13.2 21.9375 13.8917 21.8125 14.575C21.6875 15.2583 21.4667 15.9167 21.15 16.55Z" fill="#000000"/>
</svg>
