<svg xmlns="http://www.w3.org/2000/svg" width="23" height="16" viewBox="0 0 23 16" fill="none">
    <path d="M11.0911 15.2067C10.4615 15.2067 9.86834 14.9733 9.44859 14.5667L8.07982 13.2333C8.05245 13.2067 7.94295 13.1733 7.89732 13.1667H7.44107C3.6359 13.1667 1.28163 12.4133 1.28163 8.66667L1.28163 5.33333C1.28163 2.38667 3.40778 0.833333 7.44107 0.833333L14.7411 0.833333C18.7744 0.833333 20.9006 2.38667 20.9006 5.33333V8.66667C20.9006 11.6133 18.7744 13.1667 14.7411 13.1667H14.2849C14.2119 13.1667 14.148 13.1933 14.1024 13.2333L12.7336 14.5667C12.3139 14.9733 11.7207 15.2067 11.0911 15.2067ZM7.44107 1.83333C4.17429 1.83333 2.6504 2.94667 2.6504 5.33333L2.6504 8.66667C2.6504 11.68 4.06478 12.1667 7.44107 12.1667H7.89732C8.3627 12.1667 8.89196 12.36 9.17484 12.6333L10.5436 13.9667C10.863 14.2733 11.3192 14.2733 11.6386 13.9667L13.0074 12.6333C13.3085 12.34 13.783 12.1667 14.2849 12.1667H14.7411C18.0079 12.1667 19.5318 11.0533 19.5318 8.66667V5.33333C19.5318 2.94667 18.0079 1.83333 14.7411 1.83333L7.44107 1.83333Z" fill="#000000"/>
    <path d="M11.0911 8C10.5801 8 10.1786 7.7 10.1786 7.33333C10.1786 6.96667 10.5892 6.66667 11.0911 6.66667C11.593 6.66667 12.0036 6.96667 12.0036 7.33333C12.0036 7.7 11.6021 8 11.0911 8Z" fill="#000000"/>
    <path d="M14.7411 8C14.2301 8 13.8286 7.7 13.8286 7.33333C13.8286 6.96667 14.2393 6.66667 14.7411 6.66667C15.243 6.66667 15.6536 6.96667 15.6536 7.33333C15.6536 7.7 15.2521 8 14.7411 8Z" fill="#000000"/>
    <path d="M7.44106 8C6.93005 8 6.52855 7.7 6.52855 7.33333C6.52855 6.96667 6.93918 6.66667 7.44106 6.66667C7.94294 6.66667 8.35357 6.96667 8.35357 7.33333C8.35357 7.7 7.95206 8 7.44106 8Z" fill="#000000"/>
</svg>
